<?xml version="1.0" encoding="iso-8859-1"?>
<!-- Generator: Adobe Illustrator 19.0.0, SVG Export Plug-In . SVG Version: 6.00 Build 0)  -->
<svg version="1.1" id="Capa_1" xmlns="http://www.w3.org/2000/svg" xmlns:xlink="http://www.w3.org/1999/xlink" x="0px" y="0px"
	 viewBox="0 0 480 480" style="enable-background:new 0 0 480 480;" xml:space="preserve">
<g>
	<g>
		<path d="M472,464h-72V248c0-4.8-3.2-8-8-8h-80c-4.8,0-8,3.2-8,8v216h-32V152c0-4.8-3.2-8-8-8h-80c-4.8,0-8,3.2-8,8v312h-32V296
			c0-4.8-3.2-8-8-8H56c-4.8,0-8,3.2-8,8v168H16V8c0-4.8-3.2-8-8-8S0,3.2,0,8v464c0,4.8,3.2,8,8,8h464c4.8,0,8-3.2,8-8
			S476.8,464,472,464z M128,464H64V304h64V464z M256,464h-64V160h64V464z M384,464h-64V256h64V464z"/>
	</g>
</g>
<g>
</g>
<g>
</g>
<g>
</g>
<g>
</g>
<g>
</g>
<g>
</g>
<g>
</g>
<g>
</g>
<g>
</g>
<g>
</g>
<g>
</g>
<g>
</g>
<g>
</g>
<g>
</g>
<g>
</g>
</svg>
