<svg height="512pt" viewBox="0 -1 512 511" width="512pt" xmlns="http://www.w3.org/2000/svg"><path d="m496.878906.5h-481.757812c-8.351563 0-15.121094 6.769531-15.121094 15.121094v479.707031c0 8.351563 6.769531 15.121094 15.121094 15.121094h481.757812c8.351563 0 15.121094-6.769531 15.121094-15.121094v-479.707031c0-8.351563-6.769531-15.121094-15.121094-15.121094zm-466.636718 30.242188h451.515624v73.570312c-6.597656 3.585938-10.898437 9.011719-13.9375 12.84375-3.898437 4.917969-4.460937 5.125-5.359374 5.125-.898438 0-1.460938-.207031-5.359376-5.125-4.917968-6.199219-13.144531-16.578125-29.058593-16.578125-15.910157 0-24.140625 10.378906-29.054688 16.578125-3.898437 4.917969-4.460937 5.125-5.355469 5.125-.898437 0-1.460937-.207031-5.359374-5.125-4.914063-6.199219-13.144532-16.578125-29.054688-16.578125-15.914062 0-24.140625 10.378906-29.058594 16.578125-3.898437 4.917969-4.457031 5.125-5.355468 5.125-.894532 0-1.457032-.207031-5.355469-5.125-4.914063-6.199219-13.144531-16.578125-29.054688-16.578125-15.914062 0-24.140625 10.378906-29.054687 16.582031-3.898438 4.914063-4.457032 5.121094-5.355469 5.121094-.894531 0-1.453125-.207031-5.351563-5.121094-4.917968-6.203125-13.144531-16.582031-29.054687-16.582031s-24.140625 10.378906-29.054687 16.578125c-3.898438 4.917969-4.457032 5.125-5.355469 5.125-.898438 0-1.457031-.207031-5.355469-5.125-4.917969-6.199219-13.144531-16.578125-29.054688-16.578125-15.914062 0-24.140624 10.378906-29.058593 16.578125-3.894531 4.917969-4.457031 5.125-5.351563 5.125-.898437 0-1.457031-.207031-5.355468-5.125-4.917969-6.199219-13.144532-16.578125-29.054688-16.578125-15.914062 0-24.140625 10.378906-29.054688 16.582031-3.898437 4.914063-4.457031 5.121094-5.355468 5.121094-.894532 0-1.457032-.207031-5.355469-5.125-3.035156-3.832031-7.335937-9.257812-13.933594-12.84375v-73.570312zm279.441406 317.09375h-21.375v-215.777344c1.117187-1.15625 1.542968-1.238282 2.085937-1.238282.894531 0 1.457031.207032 5.355469 5.125 3.035156 3.828126 7.339844 9.25 13.933594 12.839844zm-51.613282 0h-227.828124v-201.753907c4.742187 3.597657 10.960937 6.441407 19.289062 6.441407 15.910156 0 24.136719-10.378907 29.054688-16.582032 3.894531-4.917968 4.457031-5.121094 5.351562-5.121094.898438 0 1.457031.203126 5.355469 5.121094 4.914062 6.203125 13.140625 16.582032 29.054687 16.582032 15.910156 0 24.136719-10.378907 29.054688-16.578126 3.894531-4.921874 4.457031-5.125 5.355468-5.125.894532 0 1.457032.203126 5.355469 5.125 4.914063 6.199219 13.140625 16.578126 29.054688 16.578126 15.910156 0 24.140625-10.378907 29.054687-16.578126 3.898438-4.917968 4.457032-5.125 5.355469-5.125.894531 0 1.457031.203126 5.351563 5.121094 4.917968 6.203125 13.144531 16.582032 29.054687 16.582032.710937 0 1.402344-.027344 2.082031-.066407v195.378907zm-103.226562 30.242187v102.128906h-46.339844v-102.128906zm30.242188 0h46.644531v102.128906h-46.644531zm76.886718 0h47.710938v102.128906h-47.710938zm-231.730468 0h48.019531v102.128906h-48.019531zm309.683593 102.128906v-331.421875c6.59375-3.589844 10.898438-9.011718 13.933594-12.84375 3.898437-4.917968 4.460937-5.125 5.359375-5.125.894531 0 1.457031.207032 5.355469 5.125 4.914062 6.203125 13.144531 16.582032 29.058593 16.582032 15.910157 0 24.136719-10.378907 29.054688-16.582032 3.898438-4.917968 4.460938-5.125 5.355469-5.125.898437 0 1.460937.207032 5.359375 5.128906 4.917968 6.199219 13.144531 16.578126 29.058594 16.578126 8.332031 0 14.550781-2.847657 19.296874-6.445313v334.128906zm0 0"/><path d="m398.242188 276.207031h-25.410157c-8.351562 0-15.121093 6.769531-15.121093 15.121094s6.769531 15.121094 15.121093 15.121094h25.410157c8.351562 0 15.121093-6.769531 15.121093-15.121094s-6.769531-15.121094-15.121093-15.121094zm0 0"/></svg>