<svg height="480pt" viewBox="-80 0 480 480.06652" width="480pt" xmlns="http://www.w3.org/2000/svg"><path d="m72.035156 304.066406c3.074219 0 5.878906-1.761718 7.210938-4.535156 1.332031-2.773438.957031-6.0625-.964844-8.464844l-64-80c-2.121094-2.652344-5.691406-3.675781-8.898438-2.550781-3.207031 1.125-5.351562 4.152344-5.3476558 7.550781v192c.0429688 39.746094 32.2499998 71.957032 71.9999998 72h24c26.953125-.019531 51.640625-15.078125 64-39.03125 12.355469 23.953125 37.046875 39.011719 64 39.03125h24c39.746094-.042968 71.953125-32.253906 72-72v-192c0-3.398437-2.144531-6.425781-5.351562-7.550781-3.207032-1.125-6.777344-.101563-8.898438 2.550781l-64 80c-1.921875 2.402344-2.296875 5.691406-.964844 8.464844 1.332032 2.773438 4.136719 4.535156 7.214844 4.535156h24v104c0 13.253906-10.746094 24-24 24h-24c-13.257812 0-24-10.746094-24-24v-276.199218c26.367188-17.621094 38.105469-50.417969 28.898438-80.765626-9.207032-30.351562-37.1875-51.101562-68.898438-51.101562-31.714844 0-59.695312 20.75-68.902344 51.101562-9.207031 30.347657 2.53125 63.144532 28.902344 80.765626v276.199218c0 13.253906-10.746094 24-24 24h-24c-13.257812 0-24-10.746094-24-24v-104zm0 144h24c22.078125-.027344 39.972656-17.917968 40-40v-280.632812c-.003906-2.855469-1.527344-5.492188-4-6.917969-21.953125-12.675781-32.652344-38.511719-26.09375-62.992187 6.558594-24.484376 28.746094-41.507813 54.09375-41.507813 25.34375 0 47.53125 17.023437 54.089844 41.507813 6.558594 24.480468-4.140625 50.316406-26.089844 62.992187-2.472656 1.425781-4 4.0625-4 6.917969v280.632812c.023438 22.082032 17.917969 39.972656 40 40h24c22.078125-.027344 39.972656-17.917968 40-40v-112c0-4.417968-3.582031-8-8-8h-15.355468l39.355468-49.191406v169.191406c-.039062 30.914063-25.089844 55.964844-56 56h-24c-30.914062-.035156-55.964844-25.085937-56-56 0-4.417968-3.582031-8-8-8-4.421875 0-8 3.582032-8 8-.039062 30.914063-25.089844 55.964844-56 56h-24c-30.914062-.035156-55.964844-25.085937-56-56v-169.191406l39.351563 49.191406h-15.351563c-4.421875 0-8 3.582032-8 8v112c.023438 22.082032 17.917969 39.972656 40 40zm0 0"/><path d="m200.035156 72.066406c0-22.089844-17.910156-40-40-40-22.09375 0-40 17.910156-40 40s17.90625 40 40 40c22.078125-.027344 39.972656-17.917968 40-40zm-64 0c0-13.253906 10.742188-24 24-24 13.253906 0 24 10.746094 24 24s-10.746094 24-24 24c-13.257812 0-24-10.746094-24-24zm0 0"/><path d="m160.035156 336.066406c-4.421875 0-8 3.582032-8 8v16c0 4.417969 3.578125 8 8 8 4.417969 0 8-3.582031 8-8v-16c0-4.417968-3.582031-8-8-8zm0 0"/><path d="m160.035156 128.066406c-4.421875 0-8 3.582032-8 8v176c0 4.417969 3.578125 8 8 8 4.417969 0 8-3.582031 8-8v-176c0-4.417968-3.582031-8-8-8zm0 0"/></svg>