<svg viewBox="-41 1 511 511.999" xmlns="http://www.w3.org/2000/svg"><path d="m429.578125 291.351562c0-15.40625-12.53125-27.941406-27.9375-27.941406h-71.5v-196.058594c0-13.730468-11.171875-24.902343-24.898437-24.902343h-27.707032c-4.472656-24.121094-25.660156-42.449219-51.058594-42.449219h-61.386718c-24.816406 0-45.382813 18.511719-48.636719 42.449219h-91.054687c-13.730469 0-24.898438 11.171875-24.898438 24.902343v381.058594c0 13.730469 11.167969 24.902344 24.898438 24.902344h43.800781c.019531 0 .039062-.003906.058593-.003906h173.800782v10.75c0 15.40625 12.535156 27.941406 27.941406 27.941406h79.859375c7.660156 0 14.984375-2.292969 21.183594-6.535156.039062-.023438.074219-.050782.113281-.078125.394531-.273438.789062-.550781 1.175781-.839844.152344-.113281.300781-.234375.453125-.351563.28125-.214843.566406-.433593.839844-.660156.300781-.242187.59375-.496094.882812-.75.136719-.117187.277344-.226562.410157-.347656.445312-.398438.878906-.800781 1.304687-1.222656l41.097656-40.367188c3.246094-3.1875 5.863282-6.90625 7.78125-11.058594.058594-.132812.101563-.269531.15625-.402343 2.152344-4.808594 3.320313-10.054688 3.320313-15.378907zm-57.417969 186.804688v-22.5625h22.960938zm-145.683594-458.15625c17.613282 0 31.941407 14.328125 31.941407 31.9375v66.195312l-26.15625-13.613281c-3.753907-1.972656-8.285157-2.0625-12.15625-.21875l-29.9375 14.394531v-86.90625c0-.777343-.035157-1.546874-.089844-2.316406-.011719-.136718-.019531-.273437-.03125-.410156-.058594-.734375-.144531-1.464844-.257813-2.191406-.019531-.140625-.042968-.277344-.066406-.417969-.125-.742187-.261718-1.480469-.433594-2.214844-.007812-.027343-.015624-.058593-.027343-.089843-.167969-.714844-.367188-1.421876-.585938-2.121094-.035156-.121094-.070312-.242188-.109375-.363282-.183594-.558593-.371094-1.117187-.582031-1.664062zm-63.367187.066406c.058594.03125.117187.0625.175781.09375.109375.058594.21875.125.324219.1875.167969.097656.335937.203125.5.308594.109375.070312.214844.144531.320313.214844.160156.113281.316406.226562.46875.34375.101562.074218.203124.152344.300781.234375.152343.121093.300781.25.445312.378906.09375.082031.1875.160156.277344.246094.148437.140625.292969.285156.4375.433593.078125.078126.15625.15625.234375.238282.164062.179687.324219.367187.480469.554687.046875.054688.09375.105469.136719.160157.199218.246093.386718.5.570312.757812.042969.0625.082031.132812.125.195312.132812.199219.261719.394532.382812.601563.058594.097656.113282.199219.171876.300781.097656.175782.195312.347656.285156.527344.054687.117188.109375.230469.164062.347656.078125.171875.15625.34375.230469.519532.050781.121093.097656.242187.144531.363281.066406.175781.128906.351562.191406.527343.039063.128907.082032.253907.121094.382813.054688.179687.105469.359375.152344.542969.03125.125.066406.253906.09375.382812.042969.1875.078125.382813.113281.574219.019531.125.046875.246094.066407.371094.03125.210937.050781.425781.074218.640625.011719.109375.023438.214844.03125.320312.027344.320313.039063.644532.039063.972656v10.660157h-33.414063c2.871094-12.230469 13.476563-21.511719 26.355469-22.382813zm-83.910156 433.246094v-274.546875c0-5.519531-4.476563-10-10-10-5.519531 0-10 4.480469-10 10v274.546875h-33.800781c-2.699219 0-4.898438-2.199219-4.898438-4.902344v-381.054687c0-2.703125 2.199219-4.902344 4.898438-4.902344h33.800781v36.3125c0 5.523437 4.480469 10 10 10 5.523437 0 10-4.476563 10-10v-36.316406h90.96875v65c0 5.015625 2.539062 9.605469 6.785156 12.273437.28125.175782.566406.339844.855469.5.09375.046875.1875.089844.277344.136719.203124.105469.402343.207031.605468.296875.113282.050781.226563.097656.339844.144531.1875.082031.375.160157.566406.230469.117188.042969.238282.085938.359375.128906.1875.0625.375.125.558594.179688.125.039062.25.074218.375.109375.191406.050781.378906.097656.566406.140625.125.027344.25.054687.378907.082031.191406.039063.382812.070313.578124.101563.125.019531.246094.042968.371094.058593.203125.027344.40625.046875.613282.0625.113281.011719.226562.023438.339843.03125.230469.015625.460938.019531.6875.023438.078125 0 .15625.007812.230469.007812h.03125c.480469-.003906.960938-.03125 1.441406-.082031.074219-.007812.148438-.015625.21875-.023438.46875-.054687.933594-.132812 1.394532-.234374.078124-.015626.15625-.035157.234374-.054688.464844-.109375.925782-.242188 1.382813-.398438.058594-.019531.121094-.042968.179687-.066406.476563-.167968.949219-.359375 1.414063-.582031l34.894531-16.785156 31.363282 16.324219c4.539062 2.359374 9.859374 2.1875 14.230468-.46875 4.367188-2.652344 6.976563-7.285157 6.976563-12.394532v-64.742187h26.820312c2.699219 0 4.898438 2.199219 4.898438 4.898437v196.0625h-39.140625c-15.40625 0-27.941406 12.53125-27.941406 27.9375v161.960938h-163.855469zm191.800781 38.6875c-4.378906 0-7.941406-3.5625-7.941406-7.9375v-192.710938c0-4.378906 3.5625-7.941406 7.941406-7.941406h130.640625c4.375 0 7.9375 3.5625 7.9375 7.941406v142.660157c0 .527343-.03125 1.058593-.078125 1.582031h-37.648438c-10.859374 0-19.691406 8.835938-19.691406 19.691406v36.652344c-.433594.03125-.863281.0625-1.300781.0625zm0 0"/><path d="m300.984375 337.878906h68.417969c5.519531 0 10-4.476562 10-10 0-5.519531-4.480469-10-10-10h-68.417969c-5.523437 0-10 4.480469-10 10 0 5.523438 4.476563 10 10 10zm0 0"/><path d="m300.984375 391.472656h68.417969c5.519531 0 10-4.476562 10-10 0-5.519531-4.480469-10-10-10h-68.417969c-5.523437 0-10 4.480469-10 10 0 5.523438 4.476563 10 10 10zm0 0"/><path d="m335.191406 425.066406h-34.207031c-5.523437 0-10 4.476563-10 10 0 5.523438 4.476563 10 10 10h34.207031c5.523438 0 10-4.476562 10-10 0-5.523437-4.476562-10-10-10zm0 0"/><path d="m78.429688 134.9375c-.25-.597656-.550782-1.179688-.910157-1.71875-.371093-.550781-.789062-1.058594-1.25-1.519531-.460937-.472657-.96875-.882813-1.519531-1.25-.539062-.359375-1.121094-.671875-1.71875-.921875-.613281-.25-1.242188-.4375-1.882812-.566406-1.277344-.261719-2.609376-.261719-3.898438 0-.640625.128906-1.273438.316406-1.871094.566406-.609375.25-1.1875.5625-1.730468.921875-.550782.367187-1.058594.777343-1.519532 1.25-.460937.460937-.878906.96875-1.238281 1.519531-.359375.539062-.671875 1.121094-.921875 1.71875-.25.613281-.4375 1.242188-.570312 1.871094-.128907.652344-.199219 1.3125-.199219 1.960937 0 .648438.070312 1.308594.199219 1.949219.132812.640625.320312 1.269531.570312 1.871094.25.597656.5625 1.179687.921875 1.726562.359375.542969.777344 1.0625 1.238281 1.523438.460938.460937.96875.878906 1.519532 1.238281.542968.359375 1.121093.671875 1.730468.921875.601563.25 1.230469.4375 1.871094.566406.640625.132813 1.300781.203125 1.949219.203125.648437 0 1.308593-.070312 1.949219-.203125.640624-.128906 1.269531-.316406 1.882812-.566406.597656-.25 1.179688-.5625 1.71875-.921875.550781-.359375 1.058594-.777344 1.519531-1.238281.460938-.460938.878907-.980469 1.25-1.523438.359375-.546875.660157-1.128906.910157-1.726562.25-.601563.449218-1.230469.570312-1.871094.128906-.640625.199219-1.300781.199219-1.949219 0-.648437-.070313-1.308593-.199219-1.960937-.121094-.628906-.320312-1.257813-.570312-1.871094zm0 0"/><path d="m165.777344 407.605469c-15.175782 0-27.519532-12.347657-27.519532-27.519531v-3.839844c0-5.519532 4.476563-10 10-10 5.523438 0 10 4.480468 10 10v3.839844c0 4.144531 3.371094 7.519531 7.519532 7.519531 4.144531 0 7.515625-3.375 7.515625-7.519531v-13.375c-29.1875-.546876-50.328125-22.082032-50.371094-51.382813-.261719-6.195313.507813-42.695313 50.371094-81.234375v-66.996094c0-2.898437 1.257812-5.65625 3.449219-7.554687 2.1875-1.898438 5.09375-2.757813 7.964843-2.347657.363281.054688.726563.125 1.078125.214844l.058594.015625c13.730469 3.382813 24.28125 11.523438 30.472656 23.539063 10.621094 20.609375 3.632813 45.847656-16.257812 58.703125-2.351563 1.519531-4.601563 3.03125-6.765625 4.546875v31.925781c7.570312 1.226563 14.582031 4.664063 20.320312 10.054687 7.804688 7.335938 12.285157 17.683594 12.285157 28.394532 0 14.105468-5.527344 27.300781-15.5625 37.222656-4.988282 4.929688-10.773438 8.722656-17.042969 11.246094v17.027344c0 15.175781-12.34375 27.519531-27.515625 27.519531zm-22.851563-91.957031c.191407 20.910156 15.234375 30.613281 30.367188 31.054687v-45.195313c-3.09375 3.230469-5.078125 7.53125-5.285157 12.21875-.0625 1.480469.039063 2.957032.308594 4.390626 1.019532 5.429687-2.558594 10.652343-7.984375 11.671874-5.417969 1.023438-10.652343-2.554687-11.671875-7.984374-.550781-2.9375-.761718-5.949219-.628906-8.953126.6875-15.703124 11.089844-29.292968 25.265625-34.707031v-17.84375c-31.574219 29.558594-30.4375 53.703125-30.410156 53.996094.042969.449219.054687.902344.039062 1.351563zm50.367188-18.929688v43.480469c1.039062-.800781 2.03125-1.671875 2.980469-2.609375 6.207031-6.136719 9.625-14.277344 9.625-22.925782 0-5.363281-2.125-10.269531-5.980469-13.894531-1.945313-1.824219-4.191407-3.191406-6.625-4.050781zm0-113.585938v36.5c8.011719-7.710937 10.347656-19.605468 5.242187-29.507812-1.402344-2.726562-3.144531-5.050781-5.242187-6.992188zm0 0"/></svg>