<?xml version="1.0" encoding="iso-8859-1"?>
<!-- Generator: Adobe Illustrator 19.0.0, SVG Export Plug-In . SVG Version: 6.00 Build 0)  -->
<svg version="1.1" id="Capa_1" xmlns="http://www.w3.org/2000/svg" xmlns:xlink="http://www.w3.org/1999/xlink" x="0px" y="0px"
	 viewBox="0 0 512 512" style="enable-background:new 0 0 512 512;" xml:space="preserve">
<g>
	<g>
		<path d="M467,60h-16V45c0-6.927-1.703-13.412-4.51-19.279L322.211,150H406c24.814,0,45-20.186,45-45V90h16c8.276,0,15,6.724,15,15
			v51.933c0,7.09-4.834,13.11-11.748,14.634l-224.008,49.57c-19.677,4.374-33.296,20.964-34.706,40.77l-26.144,26.144
			c-2.813,2.813-4.395,6.621-4.395,10.605V332h90v-33.344c0-3.984-1.582-7.793-4.395-10.605l-25.223-25.223
			c0.921-6.059,5.217-11.039,11.365-12.394l224.008-49.57C497.513,196.249,512,178.188,512,156.933V105
			C512,80.186,491.814,60,467,60z"/>
	</g>
</g>
<g>
	<g>
		<path d="M406,0h-68.789l-150,150h92.578L425.279,4.51C419.412,1.703,412.927,0,406,0z"/>
	</g>
</g>
<g>
	<g>
		<path d="M76,0C51.186,0,31,20.186,31,45v15H15C6.709,60,0,66.709,0,75s6.709,15,15,15h16v15c0,6.927,1.703,13.412,4.51,19.279
			L159.789,0H76z"/>
	</g>
</g>
<g>
	<g>
		<path d="M202.211,0L56.721,145.49C62.588,148.297,69.073,150,76,150h68.789l150-150H202.211z"/>
	</g>
</g>
<g>
	<g>
		<path d="M281.752,443.855C276.215,420.608,271,398.65,271,376.238V362h-90v14.238c0,22.412-5.215,44.37-10.752,67.617
			C168.491,451.34,166,460.036,166,467c0,24.814,20.186,45,45,45h30c24.814,0,45-20.186,45-45
			C286,460.068,283.506,451.337,281.752,443.855z"/>
	</g>
</g>
<g>
</g>
<g>
</g>
<g>
</g>
<g>
</g>
<g>
</g>
<g>
</g>
<g>
</g>
<g>
</g>
<g>
</g>
<g>
</g>
<g>
</g>
<g>
</g>
<g>
</g>
<g>
</g>
<g>
</g>
</svg>
