<?xml version="1.0" encoding="iso-8859-1"?>
<!-- Generator: Adobe Illustrator 19.0.0, SVG Export Plug-In . SVG Version: 6.00 Build 0)  -->
<svg version="1.1" id="Capa_1" xmlns="http://www.w3.org/2000/svg" xmlns:xlink="http://www.w3.org/1999/xlink" x="0px" y="0px"
	 viewBox="0 0 512 512" style="enable-background:new 0 0 512 512;" xml:space="preserve">
<path style="fill:#FF4F4F;" d="M256.005,129.813c-15.812,0-28.675-12.864-28.675-28.675s12.864-28.675,28.675-28.675
	s28.675,12.864,28.675,28.675S271.817,129.813,256.005,129.813z"/>
<path d="M243.257,135.565l-66.17,225.563c-0.002,0.008-0.005,0.016-0.007,0.025l-40.474,137.968
	c-1.562,5.324,1.488,10.907,6.812,12.47c5.331,1.561,10.907-1.488,12.47-6.813l6.154-20.978l93.964-62.067l93.964,62.067
	l6.154,20.978c1.285,4.381,5.292,7.222,9.638,7.222c0.936,0,1.889-0.132,2.832-0.409c5.324-1.562,8.375-7.145,6.812-12.47
	l-40.474-137.969c-0.002-0.008-0.005-0.016-0.007-0.025l-14.443-49.232c-0.001-0.005-0.003-0.01-0.004-0.014l-19.958-68.033
	c-0.004-0.013-0.007-0.026-0.011-0.038l-31.754-108.244c13.978-5.193,23.965-18.664,23.965-34.428
	c0-20.244-16.47-36.713-36.713-36.713s-36.713,16.47-36.713,36.713C219.292,116.901,229.279,130.372,243.257,135.565z
	 M208.651,324.921h94.709l10.186,34.721l-57.541,38.008l-57.541-38.008L208.651,324.921z M214.546,304.826l14.071-47.968h54.776
	l14.071,47.968H214.546z M234.513,236.763l21.492-73.265l21.492,73.265L234.513,236.763L234.513,236.763z M170.805,453.928
	l21.742-74.112l45.229,29.875L170.805,453.928z M274.235,409.692l45.229-29.875l21.742,74.112L274.235,409.692z M256.005,84.519
	c9.163,0,16.618,7.455,16.618,16.618s-7.455,16.618-16.618,16.618c-9.163,0-16.618-7.455-16.618-16.618
	S246.842,84.519,256.005,84.519z"/>
<path d="M194.031,163.111c1.962,1.962,4.533,2.943,7.105,2.943c2.571,0,5.142-0.982,7.105-2.943c3.924-3.924,3.924-10.286,0-14.209
	c-26.337-26.337-26.337-69.192,0-95.529c3.924-3.924,3.924-10.286,0-14.209c-3.925-3.924-10.285-3.924-14.21,0
	C159.86,73.336,159.86,128.939,194.031,163.111z"/>
<path d="M303.77,163.111c1.962,1.962,4.533,2.943,7.105,2.943c2.571,0,5.142-0.982,7.105-2.943
	c34.171-34.172,34.171-89.775,0-123.946c-3.924-3.924-10.284-3.924-14.21,0c-3.924,3.924-3.924,10.286,0,14.209
	c26.337,26.337,26.337,69.192,0,95.529C299.846,152.825,299.846,159.187,303.77,163.111z"/>
<path d="M164.915,202.275c2.572,0,5.142-0.982,7.105-2.943c3.924-3.924,3.924-10.286,0-14.209
	c-46.311-46.31-46.311-121.661,0-167.971c3.924-3.924,3.924-10.286,0-14.209c-3.925-3.924-10.285-3.924-14.21,0
	c-26.228,26.229-40.673,61.101-40.673,98.195s14.445,71.966,40.673,98.195C159.773,201.294,162.343,202.275,164.915,202.275z"/>
<path d="M357.212,38.919c28.95,46.994,21.867,107.116-17.222,146.204c-3.924,3.924-3.924,10.286,0,14.21
	c1.962,1.962,4.533,2.943,7.105,2.943s5.142-0.981,7.105-2.943c22.222-22.223,36.365-51.631,39.823-82.806
	c3.404-30.693-3.592-61.998-19.7-88.147c-2.91-4.724-9.1-6.196-13.825-3.286C355.773,28.005,354.302,34.194,357.212,38.919z"/>
<path d="M347.095,20.095c12.93,0,12.951-20.095,0-20.095C334.165,0,334.144,20.095,347.095,20.095z"/>
<g>
</g>
<g>
</g>
<g>
</g>
<g>
</g>
<g>
</g>
<g>
</g>
<g>
</g>
<g>
</g>
<g>
</g>
<g>
</g>
<g>
</g>
<g>
</g>
<g>
</g>
<g>
</g>
<g>
</g>
</svg>
