<?xml version="1.0" encoding="iso-8859-1"?>
<!-- Generator: Adobe Illustrator 16.0.0, SVG Export Plug-In . SVG Version: 6.00 Build 0)  -->
<!DOCTYPE svg PUBLIC "-//W3C//DTD SVG 1.1//EN" "http://www.w3.org/Graphics/SVG/1.1/DTD/svg11.dtd">
<svg version="1.1" id="Capa_1" xmlns="http://www.w3.org/2000/svg" xmlns:xlink="http://www.w3.org/1999/xlink" x="0px" y="0px"
	 width="53.275px" height="53.275px" viewBox="0 0 53.275 53.275" style="enable-background:new 0 0 53.275 53.275;"
	 xml:space="preserve">
<g>
	<path d="M49.013,11.569c0-0.097-0.029-0.185-0.055-0.274C48.194,4.899,38.669,0,26.638,0C14.607,0,5.082,4.898,4.318,11.295
		c-0.026,0.09-0.055,0.178-0.055,0.274c0,0.094,0.009,0.186,0.013,0.278c-0.004,0.093-0.013,0.184-0.013,0.277V41.15
		c0,6.799,9.828,12.125,22.375,12.125s22.375-5.326,22.375-12.125V12.125c0-0.094-0.009-0.185-0.013-0.277
		C49.004,11.755,49.013,11.663,49.013,11.569z M26.638,2c10.855,0,20.035,4.482,20.346,9.848c-0.311,5.364-9.49,9.847-20.346,9.847
		c-10.856,0-20.035-4.482-20.346-9.847C6.603,6.483,15.782,2,26.638,2z M47.013,41.152c0,5.488-9.331,10.125-20.375,10.125
		S6.263,46.641,6.263,41.152v-4.84c3.489,4.188,11.203,7.034,20.375,7.034s16.887-2.848,20.375-7.034V41.152z M47.013,31.223
		c0,5.488-9.331,10.125-20.375,10.125S6.263,36.711,6.263,31.223V26.18c3.489,4.188,11.203,7.035,20.375,7.035
		s16.887-2.848,20.375-7.035V31.223z M47.013,21.09c0,5.488-9.331,10.125-20.375,10.125S6.263,26.578,6.263,21.09v-4.431
		c3.489,4.187,11.203,7.035,20.375,7.035s16.887-2.849,20.375-7.035V21.09z"/>
</g>
<g>
</g>
<g>
</g>
<g>
</g>
<g>
</g>
<g>
</g>
<g>
</g>
<g>
</g>
<g>
</g>
<g>
</g>
<g>
</g>
<g>
</g>
<g>
</g>
<g>
</g>
<g>
</g>
<g>
</g>
</svg>
